# Blender 5.1.1
# www.blender.org
o brownstone
v -11.700000 -15.000000 7.700000
v -11.700000 -14.700000 8.000000
v -12.000000 -14.700000 7.700000
v -11.700001 -14.912133 7.912132
v -11.873206 -14.873206 7.873205
v -11.912133 -14.700001 7.912132
v -11.912133 -14.912133 7.700000
v -11.700000 16.700001 8.000000
v -11.700000 17.000000 7.700000
v -12.000000 16.700001 7.700000
v -11.700001 16.912132 7.912132
v -11.873206 16.873205 7.873205
v -11.912133 16.912132 7.700000
v -11.912133 16.700001 7.912132
v -11.700000 -15.000000 -7.700000
v -12.000000 -14.700000 -7.700000
v -11.700000 -14.700000 -8.000000
v -11.912133 -14.912133 -7.700000
v -11.873206 -14.873206 -7.873205
v -11.912133 -14.700001 -7.912132
v -11.700001 -14.912133 -7.912132
v -11.700000 17.000000 -7.700000
v -11.700000 16.700001 -8.000000
v -12.000000 16.700001 -7.700000
v -11.700001 16.912132 -7.912132
v -11.873206 16.873205 -7.873205
v -11.912133 16.700001 -7.912132
v -11.912133 16.912132 -7.700000
v 11.700000 -15.000000 7.700000
v 12.000000 -14.700000 7.700000
v 11.700000 -14.700000 8.000000
v 11.912133 -14.912133 7.700000
v 11.873206 -14.873206 7.873205
v 11.912133 -14.700001 7.912132
v 11.700001 -14.912133 7.912132
v 11.700000 17.000000 7.700000
v 11.700000 16.700001 8.000000
v 12.000000 16.700001 7.700000
v 11.700001 16.912132 7.912132
v 11.873206 16.873205 7.873205
v 11.912133 16.700001 7.912132
v 11.912133 16.912132 7.700000
v 11.700000 -15.000000 -7.700000
v 11.700000 -14.700000 -8.000000
v 12.000000 -14.700000 -7.700000
v 11.700001 -14.912133 -7.912132
v 11.873206 -14.873206 -7.873205
v 11.912133 -14.700001 -7.912132
v 11.912133 -14.912133 -7.700000
v 11.700000 17.000000 -7.700000
v 12.000000 16.700001 -7.700000
v 11.700000 16.700001 -8.000000
v 11.912133 16.912132 -7.700000
v 11.873206 16.873205 -7.873205
v 11.912133 16.700001 -7.912132
v 11.700001 16.912132 -7.912132
vn -0.1794 -0.9673 0.1794
vn -0.1794 -0.1794 0.9673
vn -0.9673 -0.1794 0.1794
vn -0.1726 -0.6965 0.6965
vn -0.5773 -0.5774 0.5773
vn -0.6965 -0.1726 0.6965
vn -0.6965 -0.6965 0.1726
vn -0.1794 0.1794 0.9673
vn -0.1794 0.9673 0.1794
vn -0.9673 0.1794 0.1794
vn -0.1726 0.6965 0.6965
vn -0.5774 0.5774 0.5773
vn -0.6965 0.6965 0.1726
vn -0.6965 0.1726 0.6965
vn -0.1794 -0.9673 -0.1794
vn -0.9673 -0.1794 -0.1794
vn -0.1794 -0.1794 -0.9673
vn -0.6965 -0.6965 -0.1726
vn -0.5773 -0.5774 -0.5773
vn -0.6965 -0.1726 -0.6965
vn -0.1726 -0.6965 -0.6965
vn -0.1794 0.9673 -0.1794
vn -0.1794 0.1794 -0.9673
vn -0.9673 0.1794 -0.1794
vn -0.1726 0.6965 -0.6965
vn -0.5774 0.5774 -0.5773
vn -0.6965 0.1726 -0.6965
vn -0.6965 0.6965 -0.1726
vn 0.1794 -0.9673 0.1794
vn 0.9673 -0.1794 0.1794
vn 0.1794 -0.1794 0.9673
vn 0.6965 -0.6965 0.1726
vn 0.5773 -0.5774 0.5773
vn 0.6965 -0.1726 0.6965
vn 0.1726 -0.6965 0.6965
vn 0.1794 0.9673 0.1794
vn 0.1794 0.1794 0.9673
vn 0.9673 0.1794 0.1794
vn 0.1726 0.6965 0.6965
vn 0.5774 0.5774 0.5773
vn 0.6965 0.1726 0.6965
vn 0.6965 0.6965 0.1726
vn 0.1794 -0.9673 -0.1794
vn 0.1794 -0.1794 -0.9673
vn 0.9673 -0.1794 -0.1794
vn 0.1726 -0.6965 -0.6965
vn 0.5773 -0.5774 -0.5773
vn 0.6965 -0.1726 -0.6965
vn 0.6965 -0.6965 -0.1726
vn 0.1794 0.9673 -0.1794
vn 0.9673 0.1794 -0.1794
vn 0.1794 0.1794 -0.9673
vn 0.6965 0.6965 -0.1726
vn 0.5774 0.5774 -0.5773
vn 0.6965 0.1726 -0.6965
vn 0.1726 0.6965 -0.6965
vt 0.128125 0.745313
vt 0.128125 0.750000
vt 0.126321 0.750000
vt 0.125000 0.745312
vt 0.377344 0.996875
vt 0.377344 1.000000
vt 0.375991 1.000000
vt 0.375000 0.996875
vt 0.377344 0.004688
vt 0.375000 0.004688
vt 0.375000 0.001981
vt 0.377344 0.000000
vt 0.622656 0.996875
vt 0.625000 0.996875
vt 0.625000 0.998679
vt 0.622656 1.000000
vt 0.871875 0.745312
vt 0.875000 0.745312
vt 0.875000 0.748019
vt 0.871875 0.750000
vt 0.622656 0.004688
vt 0.622656 0.000000
vt 0.624009 0.000000
vt 0.625000 0.004688
vt 0.128125 0.504688
vt 0.125000 0.504687
vt 0.125000 0.501981
vt 0.128125 0.500000
vt 0.377344 0.245312
vt 0.377344 0.250000
vt 0.375495 0.250660
vt 0.375000 0.245312
vt 0.377344 0.253125
vt 0.375000 0.253125
vt 0.871875 0.504688
vt 0.871875 0.500000
vt 0.873679 0.500000
vt 0.875000 0.504687
vt 0.622656 0.253125
vt 0.622656 0.250000
vt 0.624505 0.249009
vt 0.625000 0.253125
vt 0.622656 0.245312
vt 0.625000 0.245312
vt 0.371875 0.745312
vt 0.375000 0.745312
vt 0.375330 0.749780
vt 0.373438 0.751562
vt 0.377344 0.745312
vt 0.377344 0.750000
vt 0.377344 0.753125
vt 0.628125 0.745313
vt 0.626562 0.751562
vt 0.625110 0.749340
vt 0.625000 0.745312
vt 0.622656 0.753125
vt 0.622656 0.750000
vt 0.622656 0.745313
vt 0.371875 0.504688
vt 0.373437 0.498438
vt 0.374890 0.500660
vt 0.375000 0.504687
vt 0.377344 0.496875
vt 0.377344 0.500000
vt 0.377344 0.504687
vt 0.628125 0.504688
vt 0.625000 0.504687
vt 0.624670 0.500220
vt 0.626562 0.498438
vt 0.622656 0.504687
vt 0.622656 0.500000
vt 0.622656 0.496875
s 1
f 1/1/1 4/2/4 5/3/5 7/4/7
f 2/5/2 6/6/6 5/7/5 4/8/4
f 3/9/3 7/10/7 5/11/5 6/12/6
f 8/13/8 11/14/11 12/15/12 14/16/14
f 9/17/9 13/18/13 12/19/12 11/20/11
f 10/21/10 14/22/14 12/23/12 13/24/13
f 15/25/15 18/26/18 19/27/19 21/28/21
f 16/29/16 20/30/20 19/31/19 18/32/18
f 17/33/17 21/34/21 19/31/19 20/30/20
f 22/35/22 25/36/25 26/37/26 28/38/28
f 23/39/23 27/40/27 26/41/26 25/42/25
f 24/43/24 28/44/28 26/41/26 27/40/27
f 29/45/29 32/46/32 33/47/33 35/48/35
f 30/49/30 34/50/34 33/47/33 32/46/32
f 31/51/31 35/48/35 33/47/33 34/50/34
f 36/52/36 39/53/39 40/54/40 42/55/42
f 37/56/37 41/57/41 40/54/40 39/53/39
f 38/58/38 42/55/42 40/54/40 41/57/41
f 43/59/43 46/60/46 47/61/47 49/62/49
f 44/63/44 48/64/48 47/61/47 46/60/46
f 45/65/45 49/62/49 47/61/47 48/64/48
f 50/66/50 53/67/53 54/68/54 56/69/56
f 51/70/51 55/71/55 54/68/54 53/67/53
f 52/72/52 56/69/56 54/68/54 55/71/55
f 15/25/15 1/1/1 7/4/7 18/26/18
f 18/32/18 7/10/7 3/9/3 16/29/16
f 2/5/2 8/13/8 14/16/14 6/6/6
f 6/12/6 14/22/14 10/21/10 3/9/3
f 9/17/9 22/35/22 28/38/28 13/18/13
f 13/24/13 28/44/28 24/43/24 10/21/10
f 23/39/23 17/33/17 20/30/20 27/40/27
f 27/40/27 20/30/20 16/29/16 24/43/24
f 43/59/43 15/25/15 21/28/21 46/60/46
f 46/60/46 21/34/21 17/33/17 44/63/44
f 22/35/22 50/66/50 56/69/56 25/36/25
f 25/42/25 56/69/56 52/72/52 23/39/23
f 51/70/51 45/65/45 48/64/48 55/71/55
f 55/71/55 48/64/48 44/63/44 52/72/52
f 29/45/29 43/59/43 49/62/49 32/46/32
f 32/46/32 49/62/49 45/65/45 30/49/30
f 50/66/50 36/52/36 42/55/42 53/67/53
f 53/67/53 42/55/42 38/58/38 51/70/51
f 37/56/37 31/51/31 34/50/34 41/57/41
f 41/57/41 34/50/34 30/49/30 38/58/38
f 1/1/1 29/45/29 35/48/35 4/2/4
f 4/8/4 35/48/35 31/51/31 2/5/2
f 36/52/36 9/17/9 11/20/11 39/53/39
f 39/53/39 11/14/11 8/13/8 37/56/37
f 15/25/15 43/59/43 29/45/29 1/1/1
f 3/9/3 10/21/10 24/43/24 16/29/16
f 31/51/31 37/56/37 8/13/8 2/5/2
f 50/66/50 22/35/22 9/17/9 36/52/36
f 17/33/17 23/39/23 52/72/52 44/63/44
f 45/65/45 51/70/51 38/58/38 30/49/30
