# Blender 5.1.1
# www.blender.org
o cat_tail_segment
v 0.000000 -0.700000 -0.150000
v 0.000000 0.700000 -0.050000
v 0.075000 -0.700000 -0.129904
v 0.025000 0.700000 -0.043301
v 0.129904 -0.700000 -0.075000
v 0.043301 0.700000 -0.025000
v 0.150000 -0.700000 0.000000
v 0.050000 0.700000 0.000000
v 0.129904 -0.700000 0.075000
v 0.043301 0.700000 0.025000
v 0.075000 -0.700000 0.129904
v 0.025000 0.700000 0.043301
v 0.000000 -0.700000 0.150000
v 0.000000 0.700000 0.050000
v -0.075000 -0.700000 0.129904
v -0.025000 0.700000 0.043301
v -0.129904 -0.700000 0.075000
v -0.043301 0.700000 0.025000
v -0.150000 -0.700000 0.000000
v -0.050000 0.700000 0.000000
v -0.129904 -0.700000 -0.075000
v -0.043301 0.700000 -0.025000
v -0.075000 -0.700000 -0.129904
v -0.025000 0.700000 -0.043301
vn -0.0000 -0.6264 -0.7795
vn -0.0000 0.6795 -0.7337
vn 0.3897 -0.6264 -0.6751
vn 0.3668 0.6795 -0.6354
vn 0.6751 -0.6264 -0.3897
vn 0.6354 0.6795 -0.3668
vn 0.7795 -0.6264 -0.0000
vn 0.7337 0.6795 -0.0000
vn 0.6751 -0.6264 0.3897
vn 0.6354 0.6795 0.3668
vn 0.3897 -0.6264 0.6751
vn 0.3668 0.6795 0.6354
vn -0.0000 -0.6264 0.7795
vn -0.0000 0.6795 0.7337
vn -0.3897 -0.6264 0.6751
vn -0.3668 0.6795 0.6354
vn -0.6751 -0.6264 0.3897
vn -0.6354 0.6795 0.3668
vn -0.7795 -0.6264 -0.0000
vn -0.7337 0.6795 -0.0000
vn -0.6751 -0.6264 -0.3897
vn -0.6354 0.6795 -0.3668
vn -0.3897 -0.6264 -0.6751
vn -0.3668 0.6795 -0.6354
vt 1.000000 0.500000
vt 1.000000 1.000000
vt 0.916667 1.000000
vt 0.916667 0.500000
vt 0.833333 1.000000
vt 0.833333 0.500000
vt 0.750000 1.000000
vt 0.750000 0.500000
vt 0.666667 1.000000
vt 0.666667 0.500000
vt 0.583333 1.000000
vt 0.583333 0.500000
vt 0.500000 1.000000
vt 0.500000 0.500000
vt 0.416667 1.000000
vt 0.416667 0.500000
vt 0.333333 1.000000
vt 0.333333 0.500000
vt 0.250000 1.000000
vt 0.250000 0.500000
vt 0.166667 1.000000
vt 0.166667 0.500000
vt 0.370000 0.457846
vt 0.250000 0.490000
vt 0.130000 0.457846
vt 0.042154 0.370000
vt 0.010000 0.250000
vt 0.042154 0.130000
vt 0.130000 0.042154
vt 0.250000 0.010000
vt 0.370000 0.042154
vt 0.457846 0.130000
vt 0.490000 0.250000
vt 0.457846 0.370000
vt 0.083333 1.000000
vt 0.083333 0.500000
vt 0.000000 1.000000
vt 0.000000 0.500000
vt 0.750000 0.490000
vt 0.870000 0.457846
vt 0.957846 0.370000
vt 0.990000 0.250000
vt 0.957846 0.130000
vt 0.870000 0.042154
vt 0.750000 0.010000
vt 0.630000 0.042154
vt 0.542154 0.130000
vt 0.510000 0.250000
vt 0.542154 0.370000
vt 0.630000 0.457846
s 1
f 1/1/1 2/2/2 4/3/4 3/4/3
f 3/4/3 4/3/4 6/5/6 5/6/5
f 5/6/5 6/5/6 8/7/8 7/8/7
f 7/8/7 8/7/8 10/9/10 9/10/9
f 9/10/9 10/9/10 12/11/12 11/12/11
f 11/12/11 12/11/12 14/13/14 13/14/13
f 13/14/13 14/13/14 16/15/16 15/16/15
f 15/16/15 16/15/16 18/17/18 17/18/17
f 17/18/17 18/17/18 20/19/20 19/20/19
f 19/20/19 20/19/20 22/21/22 21/22/21
f 4/23/4 2/24/2 24/25/24 22/26/22 20/27/20 18/28/18 16/29/16 14/30/14 12/31/12 10/32/10 8/33/8 6/34/6
f 21/22/21 22/21/22 24/35/24 23/36/23
f 23/36/23 24/35/24 2/37/2 1/38/1
f 1/39/1 3/40/3 5/41/5 7/42/7 9/43/9 11/44/11 13/45/13 15/46/15 17/47/17 19/48/19 21/49/21 23/50/23
